<svg xmlns="http://www.w3.org/2000/svg" width="880" height="210" viewBox="0 0 880 210" role="img" aria-label="GitHub stats for QuantumMonkey">
<style>
  .bg{fill:#0d1117;stroke:#30363d;stroke-width:1}
  .title{fill:#e6edf3;font:600 16px 'Segoe UI',Ubuntu,sans-serif}
  .sub{fill:#7d8590;font:400 11px 'Segoe UI',Ubuntu,sans-serif}
  .num{fill:#58a6ff;font:600 22px 'Segoe UI',Ubuntu,sans-serif}
  .cap{fill:#7d8590;font:400 10px 'Segoe UI',Ubuntu,sans-serif}
  .lbl{fill:#e6edf3;font:400 11px 'Segoe UI',Ubuntu,sans-serif}
  .lg{fill:#c9d1d9;font:400 11px 'Segoe UI',Ubuntu,sans-serif}
</style>
<rect class="bg" x="0.5" y="0.5" width="879" height="209" rx="10"/>
<text x="26" y="34" class="title">Anubis Lab &#183; @QuantumMonkey</text>
<text x="26" y="50" class="sub">building privacy-first, on-device apps &#183; ex ML / AI</text>
<text x="26" y="70" class="num">6</text><text x="26" y="88" class="cap">years on GitHub</text><text x="233" y="70" class="num">20</text><text x="233" y="88" class="cap">original repos</text><text x="440" y="70" class="num">14</text><text x="440" y="88" class="cap">followers</text><text x="647" y="70" class="num">595</text><text x="647" y="88" class="cap">contributions / yr</text>
<text x="26" y="118" class="lbl">language mix &#183; across all repos</text>
<rect x="26.0" y="128" width="248.4" height="10" fill="#3572A5"/><rect x="274.4" y="128" width="248.4" height="10" fill="#F1E05A"/><rect x="522.8" y="128" width="165.6" height="10" fill="#3178C6"/><rect x="688.4" y="128" width="82.8" height="10" fill="#E34C26"/><rect x="771.2" y="128" width="82.8" height="10" fill="#8B949E"/>
<circle cx="30" cy="154" r="4" fill="#3572A5"/><text x="40" y="158" class="lg">Python 30%</text><circle cx="306" cy="154" r="4" fill="#F1E05A"/><text x="316" y="158" class="lg">JavaScript 30%</text><circle cx="582" cy="154" r="4" fill="#3178C6"/><text x="592" y="158" class="lg">TypeScript 20%</text><circle cx="30" cy="172" r="4" fill="#E34C26"/><text x="40" y="176" class="lg">HTML 10%</text><circle cx="306" cy="172" r="4" fill="#8B949E"/><text x="316" y="176" class="lg">Dart 10%</text>
<text x="854" y="198" text-anchor="end" class="sub">updated 2026-08-22 &#183; current streak 5d</text>
</svg>